<svg width="20" height="20" viewBox="0 0 20 20" fill="none" xmlns="http://www.w3.org/2000/svg">
<path d="M20 1.66667V5.41667C20 5.64667 19.8133 5.83333 19.5833 5.83333C19.3533 5.83333 19.1667 5.64667 19.1667 5.41667V1.66667C19.1667 1.5925 19.1567 1.52 19.1383 1.45083L13.2117 7.3775C13.13 7.45917 13.0233 7.49917 12.9167 7.49917C12.81 7.49917 12.7033 7.45833 12.6217 7.3775C12.4592 7.215 12.4592 6.95083 12.6217 6.78833L18.5483 0.861667C18.4792 0.843333 18.4075 0.833333 18.3325 0.833333H14.5825C14.3525 0.833333 14.1658 0.646667 14.1658 0.416667C14.1658 0.186667 14.3525 0 14.5825 0H18.3325C19.2517 0 20 0.7475 20 1.66667ZM19.3025 14.415C20.2175 15.325 20.2175 16.7475 19.3433 17.6217L18.5283 18.5592C17.5942 19.4958 16.355 20 15.0192 20C8.5625 20 0 11.4375 0 4.98C0 3.64417 0.504167 2.40583 1.42 1.49083L2.4 0.6375C3.20417 -0.170833 4.70333 -0.19 5.54917 0.656667L7.18167 2.77583C8.02 3.60917 8.02 5.03167 7.14583 5.90583L5.90667 7.17667C7.25417 10.3458 9.75167 12.8467 12.8192 14.0958L14.0958 12.8508C14.9433 12.0058 16.4183 12.0067 17.2642 12.8533L19.3025 14.415ZM18.7542 15.04L16.7158 13.4792C16.1025 12.875 15.215 12.9108 14.6833 13.4433C14.6833 13.445 13.2075 14.8825 13.2075 14.8825C13.0917 14.9958 12.9217 15.0325 12.7683 14.9725C9.29167 13.645 6.47167 10.8267 5.03083 7.23917C4.96917 7.08583 5.00417 6.91083 5.11833 6.7925L6.55333 5.32083C7.10667 4.7675 7.10667 3.87417 6.5575 3.32417L4.925 1.205C4.67333 0.955833 4.33 0.828333 3.98083 0.828333C3.6175 0.828333 3.24833 0.965833 2.96833 1.245L1.98833 2.09917C1.25083 2.83667 0.833333 3.86667 0.833333 4.97917C0.833333 10.9458 9.05333 19.1658 15.0192 19.1658C16.1317 19.1658 17.1617 18.7483 17.9192 17.99L18.7342 17.0525C19.3033 16.4817 19.3033 15.5883 18.7533 15.0392L18.7542 15.04Z" fill="#B6E82A"/>
</svg>
