<svg width="21" height="21" viewBox="0 0 21 21" fill="none" xmlns="http://www.w3.org/2000/svg">
<path d="M13.125 3.9375C13.125 3.696 13.321 3.5 13.5625 3.5H16.625V0.4375C16.625 0.196 16.821 0 17.0625 0C17.304 0 17.5 0.196 17.5 0.4375V3.5H20.5625C20.804 3.5 21 3.696 21 3.9375C21 4.179 20.804 4.375 20.5625 4.375H17.5V7.4375C17.5 7.679 17.304 7.875 17.0625 7.875C16.821 7.875 16.625 7.679 16.625 7.4375V4.375H13.5625C13.321 4.375 13.125 4.179 13.125 3.9375ZM20.5625 6.125C20.321 6.125 20.125 6.321 20.125 6.5625V17.0625C20.125 18.7512 18.7512 20.125 17.0625 20.125H3.9375C2.24875 20.125 0.875 18.7512 0.875 17.0625V6.88013L7.71575 13.7218C8.48313 14.4891 9.492 14.8733 10.5009 14.8733C11.5098 14.8733 12.516 14.49 13.2825 13.7244L16.6749 10.374C16.8464 10.2043 16.8481 9.92688 16.6784 9.7545C16.5078 9.58388 16.2313 9.58125 16.0589 9.751L12.6648 13.1031C11.4704 14.2966 9.527 14.2966 8.3335 13.1031L0.984375 5.75225C1.3405 4.4555 2.52962 3.5 3.9375 3.5H10.9375C11.179 3.5 11.375 3.304 11.375 3.0625C11.375 2.821 11.179 2.625 10.9375 2.625H3.9375C1.76662 2.625 0 4.39162 0 6.5625V17.0625C0 19.2334 1.76662 21 3.9375 21H17.0625C19.2334 21 21 19.2334 21 17.0625V6.5625C21 6.321 20.804 6.125 20.5625 6.125Z" fill="#B6E82A"/>
</svg>
